# xmcd
#
# Track frame offsets:
#	150
#	27710
#	39368
#	69046
#	95509
#	118438
#	141265
#	162429
#	181034
#	199433
#	219615
#	233606
#	248696
#	273902
#	297961
#	313911
#	329775
#
# Disc length: 4606 seconds
#
# Revision: 0
# Processed by: cddbd v1.5.1PL0 Copyright (c) Steve Scherf et al.
# Submitted via: dBpowerAMP V4.0
#
DISCID=0811fc11
DTITLE=Dire Straits and Marc Knopfler - Brothers in Arms (Special Edition)
DYEAR=1900
DGENRE=Country
TTITLE0=Brothers in Arms
TTITLE1=Going home
TTITLE2=Money for nothing
TTITLE3=Romeo and Juliet
TTITLE4=Smooching
TTITLE5=So Far Away
TTITLE6=The man's too strong
TTITLE7=The way it alwasys starts
TTITLE8=Walk of life
TTITLE9=Why worry
TTITLE10=Down to the waterline
TTITLE11=Setting me up
TTITLE12=Sultans of swing
TTITLE13=Water of Love
TTITLE14=Where do you think you're going
TTITLE15=Twisting by the pool
TTITLE16=What it is
EXTD=
EXTT0=
EXTT1=
EXTT2=
EXTT3=
EXTT4=
EXTT5=
EXTT6=
EXTT7=
EXTT8=
EXTT9=
EXTT10=
EXTT11=
EXTT12=
EXTT13=
EXTT14=
EXTT15=
EXTT16=
PLAYORDER=
